<svg xmlns="http://www.w3.org/2000/svg" xmlns:xlink="http://www.w3.org/1999/xlink" width="65.872" height="22.108" viewBox="0 0 65.872 22.108"><defs><clipPath id="a"><rect width="65.872" height="22.108" fill="#ed0000"/></clipPath></defs><g clip-path="url(#a)"><path d="M0,11.053A10.864,10.864,0,0,1,11.146,0a11.029,11.029,0,0,1,8.428,3.3L16.581,6.747a7.89,7.89,0,0,0-5.466-2.412c-3.6,0-6.2,2.993-6.2,6.657v.061c0,3.664,2.534,6.718,6.2,6.718,2.443,0,3.939-.977,5.619-2.5l2.992,3.023a10.925,10.925,0,0,1-8.764,3.817A10.79,10.79,0,0,1,0,11.114" transform="translate(0 0.001)" fill="#ed0000"/><path d="M119.053,11.115v-.061A10.864,10.864,0,0,1,130.2,0a11.03,11.03,0,0,1,8.428,3.3l-2.993,3.451a7.889,7.889,0,0,0-5.466-2.412c-3.6,0-6.2,2.993-6.2,6.657v.061c0,3.664,2.534,6.718,6.2,6.718,2.443,0,3.939-.977,5.619-2.5l2.992,3.023a10.926,10.926,0,0,1-8.764,3.817,10.79,10.79,0,0,1-10.963-10.993" transform="translate(-95.957 0)" fill="#ed0000"/><path d="M237.869,11.115v-.061A10.864,10.864,0,0,1,249.015,0a11.03,11.03,0,0,1,8.428,3.3L254.45,6.748a7.889,7.889,0,0,0-5.466-2.412c-3.6,0-6.2,2.993-6.2,6.657v.061c0,3.664,2.534,6.718,6.2,6.718,2.443,0,3.939-.977,5.618-2.5l2.993,3.023a10.926,10.926,0,0,1-8.764,3.817,10.79,10.79,0,0,1-10.963-10.993" transform="translate(-191.724 0)" fill="#ed0000"/></g></svg>