<svg xmlns="http://www.w3.org/2000/svg" xmlns:xlink="http://www.w3.org/1999/xlink" width="467" height="253" viewBox="0 0 467 253">
  <defs>
    <radialGradient id="radial-gradient" cx="0.5" cy="0.5" r="0.5" gradientUnits="objectBoundingBox">
      <stop offset="0" stop-color="#1d0404"/>
      <stop offset="1" stop-color="#2f0404" stop-opacity="0"/>
    </radialGradient>
    <clipPath id="clip-path">
      <path id="Path_135" data-name="Path 135" d="M0,86.468H351.043V-31.349H0Z" transform="translate(0 31.349)" fill="#f5efe7"/>
    </clipPath>
  </defs>
  <g id="Group_150" data-name="Group 150" transform="translate(-1207 -6230)">
    <ellipse id="Ellipse_16" data-name="Ellipse 16" cx="233.5" cy="126.5" rx="233.5" ry="126.5" transform="translate(1207 6230)" opacity="0.777" fill="url(#radial-gradient)"/>
    <g id="Group_120" data-name="Group 120" transform="translate(1264.479 6328.44)">
      <g id="Group_119" data-name="Group 119" transform="translate(0 -31.349)" clip-path="url(#clip-path)">
        <g id="Group_116" data-name="Group 116" transform="translate(-0.001 -0.003)">
          <path id="Path_132" data-name="Path 132" d="M0,43.235c0-32.385,24.41-58.91,59.4-58.91,21.478,0,34.335,7.163,44.915,17.574L88.364,20.288C79.577,12.316,70.625,7.434,59.234,7.434c-19.2,0-33.035,15.946-33.035,35.478v.323c0,19.528,13.507,35.8,33.035,35.8,13.019,0,20.994-5.209,29.946-13.346L105.126,81.8c-11.714,12.53-24.733,20.343-46.7,20.343C24.9,102.146,0,76.27,0,43.562" transform="translate(0 15.675)" fill="#f5efe7"/>
        </g>
        <g id="Group_117" data-name="Group 117" transform="translate(123.08 0)">
          <path id="Path_133" data-name="Path 133" d="M0,43.473v-.327C0,10.765,24.41-15.761,59.4-15.761c21.482,0,34.339,7.159,44.919,17.574L88.364,20.2C79.577,12.227,70.625,7.345,59.234,7.345c-19.2,0-33.035,15.95-33.035,35.478v.323c0,19.528,13.507,35.8,33.035,35.8,13.019,0,20.994-5.209,29.946-13.342l15.946,16.112c-11.718,12.53-24.733,20.34-46.7,20.34C24.9,102.056,0,76.181,0,43.473" transform="translate(0 15.761)" fill="#f5efe7"/>
        </g>
        <g id="Group_118" data-name="Group 118" transform="translate(245.914 0)">
          <path id="Path_134" data-name="Path 134" d="M0,43.473v-.327C0,10.765,24.41-15.761,59.4-15.761c21.482,0,34.339,7.159,44.919,17.574L88.364,20.2C79.577,12.227,70.625,7.345,59.234,7.345c-19.2,0-33.035,15.95-33.035,35.478v.323c0,19.528,13.507,35.8,33.035,35.8,13.019,0,20.994-5.209,29.942-13.342l15.95,16.112c-11.714,12.53-24.733,20.34-46.7,20.34C24.9,102.056,0,76.181,0,43.473" transform="translate(0 15.761)" fill="#f5efe7"/>
        </g>
      </g>
    </g>
  </g>
</svg>
