<svg xmlns="http://www.w3.org/2000/svg" xmlns:xlink="http://www.w3.org/1999/xlink" width="467" height="253" viewBox="0 0 467 253">
  <defs>
    <radialGradient id="radial-gradient" cx="0.5" cy="0.5" r="0.5" gradientUnits="objectBoundingBox">
      <stop offset="0" stop-color="#1d0404"/>
      <stop offset="1" stop-color="#2f0404" stop-opacity="0"/>
    </radialGradient>
    <clipPath id="clip-path">
      <path id="Path_138" data-name="Path 138" d="M0,76.005H326.32V-41.812H0Z" transform="translate(0 41.812)" fill="#f5efe7"/>
    </clipPath>
  </defs>
  <g id="Group_151" data-name="Group 151" transform="translate(-247 -6230)">
    <ellipse id="Ellipse_15" data-name="Ellipse 15" cx="233.5" cy="126.5" rx="233.5" ry="126.5" transform="translate(247 6230)" fill="url(#radial-gradient)"/>
    <g id="Group_143" data-name="Group 143" transform="translate(316.84 6338.903)">
      <g id="Group_121" data-name="Group 121" transform="translate(0 -38.196)">
        <path id="Path_136" data-name="Path 136" d="M20.8,0V23.317H1.536V0H-11.44V59.858H1.536V34.808H20.8v25.05H33.769V0Z" transform="translate(11.44)" fill="#f5efe7"/>
      </g>
      <g id="Group_123" data-name="Group 123" transform="translate(0 -41.812)" clip-path="url(#clip-path)">
        <g id="Group_122" data-name="Group 122" transform="translate(53.309 19.11)">
          <path id="Path_137" data-name="Path 137" d="M16.676,28.621l-.75-4.314h-.259A14.249,14.249,0,0,1,4.095,29.514c-8.166,0-13.269-6.095-13.269-13.266C-9.174,4.9.928-.258,14.642-.27V-.949c0-2.649-1.468-5.712-7.405-5.7A22.337,22.337,0,0,0-3.8-3.62l-2.375-8.4A33.17,33.17,0,0,1,9.7-15.745c14.089,0,17.944,8.763,17.944,18.552V18.269a63.321,63.321,0,0,0,.673,10.353ZM15.028,7.879C8.9,7.874,3.441,9.469,3.441,14.9c0,3.739,2.325,5.407,5.016,5.407a6.635,6.635,0,0,0,6.32-4.618,7.99,7.99,0,0,0,.251-2.209Z" transform="translate(9.174 15.745)" fill="#f5efe7"/>
        </g>
      </g>
      <path id="Path_139" data-name="Path 139" d="M35.5,21.082H48.476V-41.493H35.5Z" transform="translate(64.537 0.58)" fill="#f5efe7"/>
      <g id="Group_127" data-name="Group 127" transform="translate(0 -41.812)" clip-path="url(#clip-path)">
        <g id="Group_124" data-name="Group 124" transform="translate(119.061 0)">
          <path id="Path_140" data-name="Path 140" d="M3.726,40.948V6.934H-2.05V-2.523H3.726V-4.2C3.726-9.33,5.152-14.709,8.9-18.28a16.6,16.6,0,0,1,11.544-4.246,24.621,24.621,0,0,1,7.1.947l-.764,9.972a13.2,13.2,0,0,0-4.139-.611c-4.26,0-6.01,3.469-6.01,7.549v2.147h8.346V6.934H16.7V40.948Z" transform="translate(2.05 22.526)" fill="#f5efe7"/>
        </g>
        <g id="Group_125" data-name="Group 125" transform="translate(152.669 3.211)">
          <path id="Path_141" data-name="Path 141" d="M0,.791A94.7,94.7,0,0,1,16.436-.435c7.893,0,13.728,1.434,17.7,4.768a17.3,17.3,0,0,1,5.982,13.621c0,6.055-1.919,10.927-5.348,14.244-4.353,4.227-10.984,6.165-17.977,6.165a31.414,31.414,0,0,1-3.931-.225V59.829H0ZM12.866,27.96a17.713,17.713,0,0,0,3.722.287c6.794,0,10.679-3.8,10.679-9.724,0-5.419-3.274-8.952-9.673-8.952a20.121,20.121,0,0,0-4.728.445Z" transform="translate(0 0.435)" fill="#f5efe7"/>
        </g>
        <g id="Group_126" data-name="Group 126" transform="translate(199.324 19.105)">
          <path id="Path_142" data-name="Path 142" d="M.229,9.582C.229,3.819.091-.531-.126-4.372H11.03l.521,7.543h.33c2.136-5.844,6.892-8.442,10.795-8.442a11.606,11.606,0,0,1,2.767.24V7.325a15.693,15.693,0,0,0-3.319-.307,8.358,8.358,0,0,0-8.591,6.656,15.527,15.527,0,0,0-.33,3.41V39.1H.229Z" transform="translate(0.126 5.271)" fill="#f5efe7"/>
        </g>
      </g>
      <path id="Path_144" data-name="Path 144" d="M81.994-34.713H94.967V8.757H81.994Z" transform="translate(149.048 12.904)" fill="#f5efe7"/>
      <g id="Group_142" data-name="Group 142" transform="translate(0 -41.812)" clip-path="url(#clip-path)">
        <g id="Group_128" data-name="Group 128" transform="translate(251.856 19.171)">
          <path id="Path_145" data-name="Path 145" d="M20.808,27.941a28.193,28.193,0,0,1-10.7,1.8c-13.137,0-21.556-8.3-21.556-22.122,0-12.931,8.456-22.99,23.382-22.99a26.9,26.9,0,0,1,9.127,1.55L19.132-4.06a16.529,16.529,0,0,0-6.594-1.2C5.854-5.264,1.661-.115,1.7,7.129c0,7.946,4.751,12.37,10.953,12.37a16.949,16.949,0,0,0,6.757-1.262Z" transform="translate(11.447 15.371)" fill="#f5efe7"/>
        </g>
        <g id="Group_129" data-name="Group 129" transform="translate(287.738 19.11)">
          <path id="Path_146" data-name="Path 146" d="M8,17.362c.324,5.96,5.382,8.577,11.336,8.577A32.75,32.75,0,0,0,30.2,24.206l1.733,8.9a39.716,39.716,0,0,1-14.6,2.519C3.469,35.624-4.4,27.278-4.4,13.727-4.4,1.6,2.7-9.551,16.152-9.551,28.818-9.551,34.18.325,34.18,11.8a28.463,28.463,0,0,1-.445,5.559ZM22.207,8.438c.031-3.951-1.431-9.155-6.777-9.155-5.128,0-7.211,5.323-7.5,9.155Z" transform="translate(4.401 9.551)" fill="#f5efe7"/>
        </g>
        <g id="Group_130" data-name="Group 130" transform="translate(230.008 6.493)">
          <path id="Path_147" data-name="Path 147" d="M0,0A7.054,7.054,0,0,0,7.34,6.723c4.43,0,7.369-2.874,7.633-6.723Z" fill="#f5efe7"/>
        </g>
        <g id="Group_131" data-name="Group 131" transform="translate(73.547 95.42)">
          <path id="Path_148" data-name="Path 148" d="M12.005,13.572A21.6,21.6,0,0,1,4.983,14.8c-3.691,0-6.472-.938-8.546-2.911A10.805,10.805,0,0,1-6.6,3.862c0-6.892,4.92-11.328,12.136-11.328a14.487,14.487,0,0,1,5.793,1.037l-.874,3.2A11.744,11.744,0,0,0,5.5-4.164c-4.658,0-7.929,2.75-7.929,7.831,0,4.954,3.043,7.9,7.574,7.9a7.622,7.622,0,0,0,3.009-.454V5.676H4.3V2.534h7.7Z" transform="translate(6.604 7.466)" fill="#f5efe7"/>
        </g>
        <g id="Group_132" data-name="Group 132" transform="translate(96.038 101.346)">
          <path id="Path_149" data-name="Path 149" d="M.084,3.507c0-2.136-.034-3.657-.13-5.08H3.417l.13,3.009h.13a4.7,4.7,0,0,1,4.3-3.364,4.178,4.178,0,0,1,.938.1V1.92a5.523,5.523,0,0,0-1.164-.13A3.508,3.508,0,0,0,4.195,4.8a6.794,6.794,0,0,0-.13,1.229v8.155H.084Z" transform="translate(0.046 1.929)" fill="#f5efe7"/>
        </g>
        <g id="Group_133" data-name="Group 133" transform="translate(106.393 101.345)">
          <path id="Path_150" data-name="Path 150" d="M2.463,6.033c.1,2.849,2.33,4.077,4.855,4.077a11.894,11.894,0,0,0,4.368-.71l.583,2.75a14.863,14.863,0,0,1-5.5.969c-5.111,0-8.121-3.139-8.121-7.96,0-4.37,2.654-8.479,7.7-8.479,5.114,0,6.8,4.207,6.8,7.67a9.77,9.77,0,0,1-.13,1.682ZM9.389,3.249C9.42,1.792,8.775-.6,6.121-.6c-2.46,0-3.5,2.235-3.657,3.852Z" transform="translate(1.355 3.319)" fill="#f5efe7"/>
        </g>
        <g id="Group_134" data-name="Group 134" transform="translate(122.991 101.343)">
          <path id="Path_151" data-name="Path 151" d="M6.431,10.4,6.172,8.651h-.1a5.862,5.862,0,0,1-4.661,2.1A4.679,4.679,0,0,1-3.538,6.061C-3.538,2.08-.01.073,5.817.107V-.152c0-1.037-.423-2.753-3.2-2.753A8.352,8.352,0,0,0-1.628-1.738l-.778-2.59a11.353,11.353,0,0,1,5.7-1.392c5.049,0,6.5,3.2,6.5,6.636V6.611a25.04,25.04,0,0,0,.228,3.787Zm-.518-7.7C3.1,2.632.413,3.246.413,5.641A2.09,2.09,0,0,0,2.678,7.907a3.222,3.222,0,0,0,3.105-2.17,2.808,2.808,0,0,0,.13-.874Z" transform="translate(3.538 5.72)" fill="#f5efe7"/>
        </g>
        <g id="Group_135" data-name="Group 135" transform="translate(138.753 97.202)">
          <path id="Path_152" data-name="Path 152" d="M3.966,0V4.5H7.754V7.476H3.966v6.957c0,1.91.518,2.914,2.04,2.914a5.806,5.806,0,0,0,1.553-.194L7.624,20.2a8.772,8.772,0,0,1-2.88.389,4.613,4.613,0,0,1-3.432-1.3c-.84-.9-1.229-2.33-1.229-4.4V7.476H-2.182V4.5H.084V.938Z" transform="translate(2.182)" fill="#f5efe7"/>
        </g>
        <g id="Group_136" data-name="Group 136" transform="translate(158.264 94.482)">
          <path id="Path_153" data-name="Path 153" d="M0,14.824c.065-1.068.13-2.815.13-4.435V-8.155H4.111V1.231h.065A5.7,5.7,0,0,1,9.223-1.294c3.852,0,6.6,3.2,6.571,7.994,0,5.664-3.593,8.479-7.152,8.479a5.422,5.422,0,0,1-4.985-2.716H3.593L3.4,14.824ZM4.111,8.318a4.423,4.423,0,0,0,.1.941A3.671,3.671,0,0,0,7.735,12.04c2.491,0,4.013-2.006,4.013-5.176,0-2.784-1.327-5.049-3.982-5.049A3.722,3.722,0,0,0,4.241,4.725a4.773,4.773,0,0,0-.13,1.037Z" transform="translate(0 8.155)" fill="#f5efe7"/>
        </g>
        <g id="Group_137" data-name="Group 137" transform="translate(177.194 101.346)">
          <path id="Path_154" data-name="Path 154" d="M.084,3.507c0-2.136-.031-3.657-.13-5.08H3.417l.13,3.009h.13a4.7,4.7,0,0,1,4.3-3.364,4.2,4.2,0,0,1,.941.1V1.92a5.553,5.553,0,0,0-1.167-.13A3.508,3.508,0,0,0,4.195,4.8a6.794,6.794,0,0,0-.13,1.229v8.155H.084Z" transform="translate(0.046 1.929)" fill="#f5efe7"/>
        </g>
        <g id="Group_138" data-name="Group 138" transform="translate(187.451 101.343)">
          <path id="Path_155" data-name="Path 155" d="M6.431,10.4,6.172,8.651h-.1a5.862,5.862,0,0,1-4.661,2.1A4.679,4.679,0,0,1-3.538,6.061C-3.538,2.08-.01.073,5.817.107V-.152c0-1.037-.423-2.753-3.2-2.753A8.352,8.352,0,0,0-1.628-1.738l-.778-2.59a11.344,11.344,0,0,1,5.7-1.392c5.049,0,6.5,3.2,6.5,6.636V6.611a25.04,25.04,0,0,0,.228,3.787Zm-.518-7.7C3.1,2.632.413,3.246.413,5.641A2.09,2.09,0,0,0,2.678,7.907a3.225,3.225,0,0,0,3.105-2.17,2.808,2.808,0,0,0,.13-.874Z" transform="translate(3.538 5.72)" fill="#f5efe7"/>
        </g>
        <g id="Group_139" data-name="Group 139" transform="translate(204.862 101.343)">
          <path id="Path_156" data-name="Path 156" d="M.084,3.257c0-1.812-.031-3.333-.13-4.692h3.5L3.642.927h.1A5.685,5.685,0,0,1,8.757-1.792c2.75,0,5.6,1.781,5.6,6.766v9.352H10.374v-8.9c0-2.263-.84-3.979-3.009-3.979A3.337,3.337,0,0,0,4.26,3.776,4.037,4.037,0,0,0,4.1,5.069v9.256H.084Z" transform="translate(0.046 1.792)" fill="#f5efe7"/>
        </g>
        <g id="Group_140" data-name="Group 140" transform="translate(222.497 94.483)">
          <path id="Path_157" data-name="Path 157" d="M10.022,0V18.544c0,1.617.065,3.367.13,4.435H6.592l-.163-2.494H6.364a5.675,5.675,0,0,1-5.145,2.849c-3.753,0-6.732-3.2-6.732-8.059C-5.547,10-2.244,6.861,1.543,6.861A5.014,5.014,0,0,1,5.975,8.932H6.04V0ZM6.04,13.787a5.613,5.613,0,0,0-.1-1.037A3.486,3.486,0,0,0,2.512,9.936c-2.556,0-3.979,2.266-3.979,5.21,0,2.88,1.423,4.985,3.948,4.985A3.51,3.51,0,0,0,5.91,17.315a4.394,4.394,0,0,0,.13-1.167Z" transform="translate(5.513)" fill="#f5efe7"/>
        </g>
        <g id="Group_141" data-name="Group 141" transform="translate(241.33 101.344)">
          <path id="Path_158" data-name="Path 158" d="M.5,8.038A8.89,8.89,0,0,0,4.548,9.171c1.747,0,2.525-.713,2.525-1.747,0-1.068-.648-1.617-2.59-2.3C1.409,4.057.113,2.375.147.529c0-2.781,2.3-4.951,5.954-4.951a9.277,9.277,0,0,1,4.176.938L9.5-.669a7.1,7.1,0,0,0-3.333-.9c-1.423,0-2.2.679-2.2,1.651,0,1,.744,1.488,2.75,2.2C9.564,3.313,10.891,4.77,10.922,7.1c0,2.849-2.232,4.92-6.408,4.92a10.169,10.169,0,0,1-4.79-1.1Z" transform="translate(0.276 4.422)" fill="#f5efe7"/>
        </g>
      </g>
    </g>
  </g>
</svg>
