<svg xmlns="http://www.w3.org/2000/svg" xmlns:xlink="http://www.w3.org/1999/xlink" width="121.628" height="23.992" viewBox="0 0 121.628 23.992"><defs><clipPath id="a"><rect width="121.628" height="23.992" fill="#ed0000"/></clipPath></defs><g transform="translate(0)"><path d="M12.015,6.4v8.69H4.835V6.4H0V28.71H4.835V19.373h7.179V28.71h4.835V6.4Z" transform="translate(0 -5.052)" fill="#ed0000"/><g transform="translate(0 0)"><g transform="translate(0 0)" clip-path="url(#a)"><path d="M103.4,42.635c-2.285,0-4.319.592-4.319,2.618a1.8,1.8,0,0,0,1.869,2.016,2.474,2.474,0,0,0,2.356-1.721,2.956,2.956,0,0,0,.093-.824Zm.615,7.731-.279-1.608h-.1A5.308,5.308,0,0,1,99.329,50.7a4.789,4.789,0,0,1-4.946-4.945c0-4.232,3.765-6.152,8.876-6.157v-.253c0-.987-.547-2.128-2.76-2.124a8.307,8.307,0,0,0-4.114,1.129L95.5,35.216a12.353,12.353,0,0,1,5.918-1.388c5.251,0,6.687,3.267,6.687,6.915v5.764a23.642,23.642,0,0,0,.252,3.858Z" transform="translate(-74.513 -26.706)" fill="#ed0000"/><rect width="4.836" height="23.323" transform="translate(37.288 0.334)" fill="#ed0000"/><path d="M212.948,23.658V10.98h-2.154V7.456h2.154V6.832a7.183,7.183,0,0,1,1.927-5.25A6.188,6.188,0,0,1,219.177,0a9.207,9.207,0,0,1,2.647.353l-.285,3.717A4.912,4.912,0,0,0,220,3.842c-1.589,0-2.241,1.293-2.241,2.814v.8h3.11V10.98h-3.082V23.658Z" transform="translate(-166.417 0)" fill="#ed0000"/><path d="M275.093,16.265a6.593,6.593,0,0,0,1.389.107c2.531,0,3.98-1.416,3.98-3.624,0-2.02-1.221-3.337-3.6-3.337a7.5,7.5,0,0,0-1.764.167ZM270.3,6.139a35.308,35.308,0,0,1,6.127-.457c2.942,0,5.116.534,6.6,1.777a6.448,6.448,0,0,1,2.228,5.077,7.155,7.155,0,0,1-1.992,5.309,9.559,9.559,0,0,1-6.7,2.3,11.505,11.505,0,0,1-1.466-.084v8.085h-4.8Z" transform="translate(-213.394 -4.486)" fill="#ed0000"/><path d="M353.032,39.362c0-2.147-.052-3.769-.133-5.2h4.157l.195,2.811h.123a4.448,4.448,0,0,1,4.024-3.145,4.2,4.2,0,0,1,1.031.09v4.6a5.774,5.774,0,0,0-1.237-.116,3.118,3.118,0,0,0-3.2,2.482,5.8,5.8,0,0,0-.122,1.269v8.206h-4.836Z" transform="translate(-278.605 -26.705)" fill="#ed0000"/><rect width="4.836" height="16.202" transform="translate(86.116 7.456)" fill="#ed0000"/><path d="M457.929,50.089a10.515,10.515,0,0,1-3.988.671c-4.9,0-8.035-3.095-8.035-8.246,0-4.82,3.151-8.568,8.715-8.568a10.031,10.031,0,0,1,3.4.577l-.719,3.638a6.169,6.169,0,0,0-2.458-.449c-2.492,0-4.055,1.919-4.04,4.621,0,2.962,1.771,4.61,4.083,4.61a6.3,6.3,0,0,0,2.518-.471Z" transform="translate(-352.033 -26.8)" fill="#ed0000"/><path d="M519.353,40.532c.011-1.473-.535-3.412-2.526-3.412-1.912,0-2.688,1.984-2.8,3.412Zm-5.3,3.326c.12,2.221,2.006,3.2,4.225,3.2a12.207,12.207,0,0,0,4.047-.646l.646,3.317a14.811,14.811,0,0,1-5.443.939c-5.165,0-8.1-3.111-8.1-8.163,0-4.517,2.648-8.676,7.661-8.676,4.721,0,6.719,3.682,6.719,7.959a10.625,10.625,0,0,1-.166,2.073Z" transform="translate(-402.186 -26.705)" fill="#ed0000"/><path d="M407.226,11.493A2.63,2.63,0,0,0,409.962,14a2.67,2.67,0,0,0,2.845-2.505Z" transform="translate(-321.495 -9.073)" fill="#ed0000"/></g></g><g transform="translate(0)"><g transform="translate(0 0)" clip-path="url(#a)"><path d="M103.4,42.635c-2.285,0-4.319.592-4.319,2.618a1.8,1.8,0,0,0,1.869,2.016,2.474,2.474,0,0,0,2.356-1.721,2.956,2.956,0,0,0,.093-.824Zm.615,7.731-.279-1.608h-.1A5.308,5.308,0,0,1,99.329,50.7a4.789,4.789,0,0,1-4.946-4.945c0-4.232,3.765-6.152,8.876-6.157v-.253c0-.987-.547-2.128-2.76-2.124a8.307,8.307,0,0,0-4.114,1.129L95.5,35.216a12.353,12.353,0,0,1,5.918-1.388c5.251,0,6.687,3.267,6.687,6.915v5.764a23.642,23.642,0,0,0,.252,3.858Z" transform="translate(-74.513 -26.706)" fill="#ed0000"/><rect width="4.836" height="23.323" transform="translate(37.288 0.334)" fill="#ed0000"/><path d="M212.948,23.658V10.98h-2.154V7.456h2.154V6.832a7.183,7.183,0,0,1,1.927-5.25A6.188,6.188,0,0,1,219.177,0a9.207,9.207,0,0,1,2.647.353l-.285,3.717A4.912,4.912,0,0,0,220,3.842c-1.589,0-2.241,1.293-2.241,2.814v.8h3.11V10.98h-3.082V23.658Z" transform="translate(-166.417 0)" fill="#ed0000"/><path d="M275.093,16.265a6.593,6.593,0,0,0,1.389.107c2.531,0,3.98-1.416,3.98-3.624,0-2.02-1.221-3.337-3.6-3.337a7.5,7.5,0,0,0-1.764.167ZM270.3,6.139a35.308,35.308,0,0,1,6.127-.457c2.942,0,5.116.534,6.6,1.777a6.448,6.448,0,0,1,2.228,5.077,7.155,7.155,0,0,1-1.992,5.309,9.559,9.559,0,0,1-6.7,2.3,11.505,11.505,0,0,1-1.466-.084v8.085h-4.8Z" transform="translate(-213.394 -4.486)" fill="#ed0000"/><path d="M353.032,39.362c0-2.147-.052-3.769-.133-5.2h4.157l.195,2.811h.123a4.448,4.448,0,0,1,4.024-3.145,4.2,4.2,0,0,1,1.031.09v4.6a5.774,5.774,0,0,0-1.237-.116,3.118,3.118,0,0,0-3.2,2.482,5.8,5.8,0,0,0-.122,1.269v8.206h-4.836Z" transform="translate(-278.605 -26.705)" fill="#ed0000"/><rect width="4.836" height="16.202" transform="translate(86.116 7.456)" fill="#ed0000"/><path d="M457.929,50.089a10.515,10.515,0,0,1-3.988.671c-4.9,0-8.035-3.095-8.035-8.246,0-4.82,3.151-8.568,8.715-8.568a10.031,10.031,0,0,1,3.4.577l-.719,3.638a6.169,6.169,0,0,0-2.458-.449c-2.492,0-4.055,1.919-4.04,4.621,0,2.962,1.771,4.61,4.083,4.61a6.3,6.3,0,0,0,2.518-.471Z" transform="translate(-352.033 -26.8)" fill="#ed0000"/><path d="M519.353,40.532c.011-1.473-.535-3.412-2.526-3.412-1.912,0-2.688,1.984-2.8,3.412Zm-5.3,3.326c.12,2.221,2.006,3.2,4.225,3.2a12.207,12.207,0,0,0,4.047-.646l.646,3.317a14.811,14.811,0,0,1-5.443.939c-5.165,0-8.1-3.111-8.1-8.163,0-4.517,2.648-8.676,7.661-8.676,4.721,0,6.719,3.682,6.719,7.959a10.625,10.625,0,0,1-.166,2.073Z" transform="translate(-402.186 -26.705)" fill="#ed0000"/><path d="M407.226,11.493A2.63,2.63,0,0,0,409.962,14a2.67,2.67,0,0,0,2.845-2.505Z" transform="translate(-321.495 -9.073)" fill="#ed0000"/></g></g></g></svg>