<svg xmlns="http://www.w3.org/2000/svg" xmlns:xlink="http://www.w3.org/1999/xlink" width="856.646" height="219.522" viewBox="0 0 856.646 219.522"><defs><clipPath id="a"><rect width="856.646" height="219.522" fill="#ed0000"/></clipPath></defs><g clip-path="url(#a)"><path d="M70.851,94.62v-.95a4.482,4.482,0,0,0,2.9-2.131,10.09,10.09,0,0,0,.809-4.566V38.113a9.44,9.44,0,0,0-.809-4.467,3.817,3.817,0,0,0-2.9-1.767v-.95c8.858-.544,13.288-.831,22.15-1.437q11.125-.761,19.251,2.474A25.753,25.753,0,0,1,124.755,42q4.372,6.789,4.374,16.672a33.532,33.532,0,0,1-4.423,17.315,32.173,32.173,0,0,1-12.5,11.981A45.858,45.858,0,0,1,93,93.185c-8.862.606-13.292.893-22.15,1.435m15.306-3.256c2.735-.182,4.105-.273,6.844-.461q11.31-.773,17.256-8.688T116.2,59.668q0-14.545-5.941-21.614T93,31.774c-2.739.186-4.109.279-6.844.461Z" transform="translate(72.365 29.973)" fill="#ed0000"/><path d="M123.56,84.719a21.555,21.555,0,0,1-9.221-1.077,19.064,19.064,0,0,1-7.273-4.677,21.548,21.548,0,0,1-4.752-7.651,28.785,28.785,0,0,1-1.664-10.089,31.094,31.094,0,0,1,1.664-10.349,26.049,26.049,0,0,1,4.752-8.368,24.436,24.436,0,0,1,7.273-5.83,23.955,23.955,0,0,1,9.221-2.628,22.076,22.076,0,0,1,9.27,1.049,18.687,18.687,0,0,1,7.271,4.588,21.193,21.193,0,0,1,4.706,7.562,28.637,28.637,0,0,1,1.666,10.068,31.288,31.288,0,0,1-1.664,10.372,26.866,26.866,0,0,1-4.754,8.459,24.2,24.2,0,0,1-7.273,5.919,23.779,23.779,0,0,1-9.221,2.652m0-48.676q-5.23.446-8.174,6.778t-2.947,17.448q0,11.122,2.947,17.012t8.174,5.442q5.227-.446,8.176-6.838t2.947-17.513q0-11.122-2.947-16.947t-8.176-5.381" transform="translate(102.8 34.677)" fill="#ed0000"/><path d="M127.85,91.434v-.857a4.194,4.194,0,0,0,2.519-1.989,9.334,9.334,0,0,0,.809-4.4v-21.3c-2.549,1.87-3.822,2.8-6.369,4.669l-1.237-1.88c3.042-2.177,4.564-3.269,7.606-5.452V34.183a13.363,13.363,0,0,0-.714-5.165,4.649,4.649,0,0,0-2.614-2.327v-.857c5.666-.707,8.5-1.067,14.166-1.793V52.278c2.585-1.843,3.877-2.765,6.462-4.611.5.714.744,1.071,1.237,1.785-3.081,2.234-4.619,3.351-7.7,5.581V83.175a8.415,8.415,0,0,0,.807,4.251,3.279,3.279,0,0,0,2.521,1.518V89.8c-7,.667-10.5.994-17.493,1.635" transform="translate(126.211 24.556)" fill="#ed0000"/><path d="M151.273,81.969a15.764,15.764,0,0,1-7.7-.96,10.7,10.7,0,0,1-5.134-4.3,13.432,13.432,0,0,1-1.805-7.194q0-7.225,5.656-13.949T160.3,41.426q-1.334-4.906-3.137-6.675a5.992,5.992,0,0,0-5.039-1.447c-4.312.424-6.7,3-7.226,7.645-.3,2.684-1.457,4.138-3.422,4.328a2.918,2.918,0,0,1-2.424-.718,3.268,3.268,0,0,1-.9-2.478,7.508,7.508,0,0,1,2.139-5.055,16.454,16.454,0,0,1,5.8-3.986,27.511,27.511,0,0,1,8.318-2.054,22.705,22.705,0,0,1,9.46.718,11.168,11.168,0,0,1,5.943,4.728,24.711,24.711,0,0,1,3.137,9.236l4.184,24.574q1.14,6.446,4.087,6.9V78c-1.712.178-2.567.265-4.279.441Q172,78.944,169.621,77T166.2,69.928a22.882,22.882,0,0,1-6.181,8.508,15.949,15.949,0,0,1-8.744,3.533M147.754,65.1q0,5.324,2.377,8.132a7.127,7.127,0,0,0,6.559,2.4,10.234,10.234,0,0,0,5.229-2.236,14.184,14.184,0,0,0,3.994-4.677c-1.789-8.983-2.682-13.478-4.469-22.463q-.379-1.959-.76-3.44-6.94,5.543-9.935,10.826a22.855,22.855,0,0,0-3,11.463M172,96.719a6.987,6.987,0,0,1-5.468-1.4,6.061,6.061,0,0,1-2.044-4.878,9.5,9.5,0,0,1,2.9-6.664,21.405,21.405,0,0,1,8.223-5.017v-.475c2.092-.212,3.137-.319,5.229-.536l.285.255a10.1,10.1,0,0,0-4.754,1.771,12.681,12.681,0,0,0-3.566,3.693,8.436,8.436,0,0,0-1.377,4.558,4.568,4.568,0,0,0,1.14,3.4,3.832,3.832,0,0,0,3.232.908,6.993,6.993,0,0,0,3.8-1.625c.115.1.172.154.285.259A9.509,9.509,0,0,1,172,96.719" transform="translate(139.551 31.472)" fill="#ed0000"/><path d="M178.165,79.68a17.048,17.048,0,0,1-10.839-2.149A18.353,18.353,0,0,1,160.1,69.1a32.184,32.184,0,0,1-2.567-13.428,33.214,33.214,0,0,1,1.427-9.844A27.781,27.781,0,0,1,163,37.623a22.65,22.65,0,0,1,6.036-5.809,16.886,16.886,0,0,1,7.511-2.636,20.451,20.451,0,0,1,4.421-.038c1.3.148,2.424.317,3.376.5a8.368,8.368,0,0,0,2.377.174,3.194,3.194,0,0,0,2.47-1.5l.76-.081c.762,6.727,1.142,10.091,1.9,16.818l-.95.1q-3.614-7.51-7.273-10.875t-7.653-2.949a8.892,8.892,0,0,0-5.278,2.4,13.762,13.762,0,0,0-3.469,5.539A23.127,23.127,0,0,0,166,47.1a32.527,32.527,0,0,0,1.33,9.511,22.979,22.979,0,0,0,3.756,7.5,15.907,15.907,0,0,0,5.656,4.683,12.589,12.589,0,0,0,6.941,1.172,13.731,13.731,0,0,0,8.934-4.75c.228.091.344.135.572.224q-2.474,6.731-6.133,10.206a14.776,14.776,0,0,1-8.888,4.029" transform="translate(160.898 28.839)" fill="#ed0000"/><path d="M178.661,30.425c14.032-1.5,21.048-2.26,35.081-3.79v.857C203.247,46.7,198,56.3,187.5,75.491l6.179-.667A22.776,22.776,0,0,0,203,71.914a20.253,20.253,0,0,0,6.7-6.765,46.754,46.754,0,0,0,4.9-11.322l1.047-.115-2.567,21.008c-15.288,1.666-22.93,2.494-38.218,4.122v-.857C185.354,58.8,190.6,49.208,201.1,30.007c-1.977.214-2.967.323-4.944.536a24.108,24.108,0,0,0-8.033,2.151,15.966,15.966,0,0,0-5.894,5.1,36.827,36.827,0,0,0-4.611,9.379l-1.045.111c.835-6.743,1.253-10.117,2.09-16.86" transform="translate(178.595 27.204)" fill="#ed0000"/><path d="M210.922,99.461a10.408,10.408,0,0,1-5.846-.736,3.646,3.646,0,0,1-2.234-3.416,3.492,3.492,0,0,1,.9-2.428,3.538,3.538,0,0,1,2.329-1.16,2.552,2.552,0,0,1,2.28.655,6.693,6.693,0,0,1,1.237,1.906,7.613,7.613,0,0,0,1.14,1.872,2.256,2.256,0,0,0,2.092.627q2.853-.312,2.852-3.735a9.412,9.412,0,0,0-.57-3.267q-.57-1.552-1.284-3.283a26.352,26.352,0,0,1-1.235-3.9,22.083,22.083,0,0,1-.524-5.126V44.195a14.425,14.425,0,0,0-.714-5.338,4.138,4.138,0,0,0-2.614-2.28c0-.342,0-.513,0-.857L222.9,32.74V82.459q0,7.6-3.137,11.989a11.95,11.95,0,0,1-8.841,5.013m5.894-83.547a5.7,5.7,0,0,1,4.467,1.219,5.044,5.044,0,0,1,1.807,4.081,6.352,6.352,0,0,1-1.807,4.427,6.916,6.916,0,0,1-4.467,2.252,5.753,5.753,0,0,1-4.516-1.265,5.014,5.014,0,0,1-1.854-4.025,6.234,6.234,0,0,1,1.854-4.483,7.192,7.192,0,0,1,4.516-2.205" transform="translate(207.176 16.206)" fill="#ed0000"/><path d="M232.26,74.39q-6.843.749-10.41-3.044t-3.566-11.776v-23.2a14.435,14.435,0,0,0-.714-5.292,4.132,4.132,0,0,0-2.614-2.331V27.9c5.666-1.346,8.5-2.019,14.164-3.364,0,12.361,0,18.538,0,30.9q0,7.131,2.139,10.129t6.7,2.5q4.942-.54,8.746-5.518c0-11.712,0-17.57,0-29.281a14.432,14.432,0,0,0-.714-5.292,4.119,4.119,0,0,0-2.614-2.333v-.853c5.666-1.342,8.5-2.011,14.166-3.349V62.316a13.21,13.21,0,0,0,.76,5.288,3.222,3.222,0,0,0,2.567,1.86v.857c-5.476.592-8.213.891-13.689,1.488l-.475-8.031a21.368,21.368,0,0,1-6.228,7.384,16.849,16.849,0,0,1-8.223,3.228" transform="translate(219.549 21.892)" fill="#ed0000"/><path d="M242.483,31.893c14.03-1.512,21.046-2.262,35.079-3.729v.855C267.067,48.181,261.82,57.77,251.325,76.957L257.5,76.3A22.737,22.737,0,0,0,266.82,73.4a20.2,20.2,0,0,0,6.7-6.743,46.623,46.623,0,0,0,4.894-11.3c.418-.044.629-.067,1.047-.109L276.9,76.244c-15.288,1.6-22.93,2.42-38.218,4.071V79.46c10.5-19.2,15.744-28.792,26.239-47.967l-4.944.524a24.076,24.076,0,0,0-8.033,2.141,16,16,0,0,0-5.894,5.1,36.879,36.879,0,0,0-4.611,9.385c-.418.044-.627.067-1.045.113l2.092-16.864m17.586-9.108a5.5,5.5,0,0,1-4.231-1.164,4.653,4.653,0,0,1-1.759-3.806,5.963,5.963,0,0,1,1.759-4.229,6.639,6.639,0,0,1,4.231-2.112,5.26,5.26,0,0,1,4.182,1.217,4.866,4.866,0,0,1,1.712,3.859,5.866,5.866,0,0,1-1.712,4.176,6.559,6.559,0,0,1-4.182,2.06" transform="translate(243.778 11.678)" fill="#ed0000"/><path d="M269.672,26.323a17.588,17.588,0,0,0,8.508-5.138,22.471,22.471,0,0,0,4.8-9.7c.342-.032.513-.051.855-.085,0,5.4,0,8.1,0,13.5,3.232-.321,4.847-.481,8.079-.8v2.662c-3.232.317-4.847.477-8.079.8V62.924a13.018,13.018,0,0,0,.57,4.314,4.446,4.446,0,0,0,1.949,2.377,11.452,11.452,0,0,0,3.756,1.243v.857c-8.176.8-12.264,1.215-20.44,2.048v-.857a4.256,4.256,0,0,0,2.521-2.013A9.392,9.392,0,0,0,273,66.483V34.825a14.48,14.48,0,0,0-.714-5.3,4.169,4.169,0,0,0-2.614-2.353Z" transform="translate(275.433 11.638)" fill="#ed0000"/><path d="M301.437,66.275a19.981,19.981,0,0,1-11.647-2.068,18.374,18.374,0,0,1-7.748-8.231,29.57,29.57,0,0,1-2.757-13.321,32.8,32.8,0,0,1,1.522-10.133,27.272,27.272,0,0,1,4.277-8.308A22.643,22.643,0,0,1,291.6,18.4a19.634,19.634,0,0,1,8.221-2.64,17.946,17.946,0,0,1,9.175,1.275,12.953,12.953,0,0,1,6.084,5.52,17.834,17.834,0,0,1,2.139,8.975v1.9c-11.673,1.071-17.511,1.625-29.184,2.759A26.914,26.914,0,0,0,290.6,47.444a17.134,17.134,0,0,0,6.418,7.271,14.544,14.544,0,0,0,9.173,1.985,14.99,14.99,0,0,0,10.457-5.062l.57.237q-4.848,13.371-15.779,14.4m-2.474-48.343a10.23,10.23,0,0,0-7.794,4.882q-2.947,4.418-3.137,11.572c3.689-.475,5.534-.709,9.221-1.178q5.227-.588,7.558-2.331a6.037,6.037,0,0,0,2.329-5.163,7.926,7.926,0,0,0-2.236-5.969,7.121,7.121,0,0,0-5.941-1.813" transform="translate(285.251 15.982)" fill="#ed0000"/><path d="M298.746,65.415v-.857a4.03,4.03,0,0,0,2.567-2.038,9.852,9.852,0,0,0,.76-4.348V26.326a13.412,13.412,0,0,0-.713-5.165,4.655,4.655,0,0,0-2.614-2.331v-.853c5.474-1.223,8.213-1.831,13.689-3.038.19,4.394.285,6.594.475,10.988a24.057,24.057,0,0,1,4.275-8.457,8.609,8.609,0,0,1,5.8-3.45,4.3,4.3,0,0,1,3.137.73,3.134,3.134,0,0,1,1.14,2.612,3.947,3.947,0,0,1-.95,2.7,3.57,3.57,0,0,1-2.472,1.2,5.948,5.948,0,0,1-2.28-.182,5.424,5.424,0,0,0-2.092-.2,4.914,4.914,0,0,0-3.517,1.969,24.088,24.088,0,0,0-3.042,5.925V55.015q0,3.9,1.237,5.549t4.657,2.205v.857c-8.023.7-12.035,1.057-20.058,1.789" transform="translate(305.128 14.291)" fill="#ed0000"/><path d="M327.212,63.87a15.964,15.964,0,0,1-7.7-1.079,10.917,10.917,0,0,1-5.134-4.37,13.531,13.531,0,0,1-1.807-7.214q0-7.222,5.656-13.879T336.243,23.5q-1.334-4.936-3.137-6.739a6.071,6.071,0,0,0-5.039-1.54c-4.309.35-6.7,2.887-7.224,7.53-.305,2.68-1.459,4.115-3.422,4.279a2.956,2.956,0,0,1-2.426-.746,3.3,3.3,0,0,1-.9-2.49,7.4,7.4,0,0,1,2.139-5.029,16.053,16.053,0,0,1,5.8-3.905,26.855,26.855,0,0,1,8.318-1.914,22.55,22.55,0,0,1,9.458.912,11.523,11.523,0,0,1,5.943,4.867,25.29,25.29,0,0,1,3.137,9.316c1.674,9.874,2.51,14.813,4.182,24.689q1.143,6.476,4.089,7.018v.857c-1.712.125-2.567.188-4.279.315q-4.942.367-7.319-1.635t-3.422-7.154a22.273,22.273,0,0,1-6.179,8.372,15.763,15.763,0,0,1-8.746,3.366m-3.517-16.921q0,5.324,2.377,8.17a7.268,7.268,0,0,0,6.559,2.515,10.079,10.079,0,0,0,5.229-2.128,13.745,13.745,0,0,0,3.992-4.586c-1.789-9.025-2.682-13.539-4.469-22.564q-.379-1.965-.76-3.459-6.94,5.4-9.935,10.64a22.611,22.611,0,0,0-2.994,11.413" transform="translate(319.249 13.104)" fill="#ed0000"/><path d="M338.186,13.773c14.032-1.011,21.048-1.48,35.079-2.331V12.3C362.77,31,357.523,40.372,347.028,59.162c2.472-.172,3.707-.257,6.179-.422a22.182,22.182,0,0,0,9.316-2.517,18.987,18.987,0,0,0,6.7-6.46,44.408,44.408,0,0,0,4.9-11.089c.418-.026.629-.038,1.047-.063L372.6,59.492c-15.288.932-22.93,1.449-38.218,2.567V61.2c10.495-18.829,15.742-28.224,26.239-46.968-1.979.129-2.967.194-4.944.325a23.256,23.256,0,0,0-8.033,1.827,15.1,15.1,0,0,0-5.894,4.882,35.288,35.288,0,0,0-4.611,9.217c-.418.03-.629.046-1.045.075.835-6.715,1.253-10.072,2.09-16.787" transform="translate(341.528 11.686)" fill="#ed0000"/><path d="M0,90.756c4.576-.461,6.867-.7,11.445-1.187v33.8a7.156,7.156,0,0,0,.651,3.495,2.968,2.968,0,0,0,2.036,1.407v.691c-5.654.04-8.48.051-14.131.051v-.691A2.983,2.983,0,0,0,2.034,126.9a7.173,7.173,0,0,0,.655-3.5V97.9a12.186,12.186,0,0,0-.578-4.376A3.9,3.9,0,0,0,0,91.447Zm6.527-15.3a4.936,4.936,0,0,1,3.649,1.4A4.649,4.649,0,0,1,11.6,80.275a4.737,4.737,0,0,1-1.421,3.388,4.885,4.885,0,0,1-3.649,1.472,4.977,4.977,0,0,1-3.687-1.447,4.688,4.688,0,0,1,0-6.8,5.081,5.081,0,0,1,3.687-1.431" transform="translate(0.001 77.07)" fill="#ed0000"/><path d="M16.035,128.9v-.689a3.232,3.232,0,0,0,2.036-1.3,5.229,5.229,0,0,0,.655-2.895V82.848a11.158,11.158,0,0,0-.578-4.215,4.183,4.183,0,0,0-2.112-2.042V75.9c4.611-.226,6.913-.346,11.524-.6v48.545a5.341,5.341,0,0,0,.612,2.868,2.983,2.983,0,0,0,2.076,1.221v.691c-5.684.129-8.526.184-14.212.275m39.712-.768c-.922-.03-1.383-.044-2.3-.077a26.7,26.7,0,0,1-5.836-.774,13.385,13.385,0,0,1-4.378-2.023,19.766,19.766,0,0,1-3.766-3.618q-1.84-2.256-3.879-4.855t-3.915-5.128q-1.883-2.532-3.264-4.5c3.042-2.955,4.56-4.435,7.6-7.4a35.935,35.935,0,0,0,3.5-3.853,4.432,4.432,0,0,0,.958-2.561q0-2.3-3.07-2.99v-.7c5.991-.154,8.985-.243,14.976-.437v.7A16.676,16.676,0,0,0,47.338,92.3a55.238,55.238,0,0,0-6.491,5.332c-1.9,1.682-2.858,2.523-4.764,4.2q2.768,4.845,6.068,9.591T49.679,121.5A26.915,26.915,0,0,0,52.6,124.86a24.156,24.156,0,0,0,3.149,2.583Z" transform="translate(16.378 76.911)" fill="#ed0000"/><path d="M51.8,122.151a17.687,17.687,0,0,1-7.451-1.213,16.349,16.349,0,0,1-5.876-4.057,18.568,18.568,0,0,1-3.839-6.363,23.8,23.8,0,0,1-1.344-8.211A24.531,24.531,0,0,1,34.636,94a19.84,19.84,0,0,1,3.839-6.578,18.464,18.464,0,0,1,5.876-4.433A18.771,18.771,0,0,1,51.8,81.211,18.19,18.19,0,0,1,59.291,82.4a16.044,16.044,0,0,1,5.876,3.966,18.182,18.182,0,0,1,3.8,6.278,23.611,23.611,0,0,1,1.344,8.2,24.732,24.732,0,0,1-1.342,8.318,20.612,20.612,0,0,1-3.841,6.666,18.335,18.335,0,0,1-5.876,4.52,18.532,18.532,0,0,1-7.453,1.8m0-39.326q-4.227.167-6.606,5.169t-2.379,13.992q0,8.981,2.379,13.852t6.606,4.7q4.227-.167,6.608-5.225t2.379-14.042q0-8.987-2.379-13.8T51.8,82.826" transform="translate(34.003 82.928)" fill="#ed0000"/><path d="M52.128,121.27v-.691a3.06,3.06,0,0,0,2.074-1.56,7.769,7.769,0,0,0,.614-3.487V89.8a11.02,11.02,0,0,0-.578-4.2,4,4,0,0,0-2.11-1.975v-.689c4.423-.792,6.636-1.195,11.061-2.005.154,3.556.23,5.332.384,8.886a18.628,18.628,0,0,1,3.457-6.707,6.678,6.678,0,0,1,4.686-2.632,3.553,3.553,0,0,1,2.535.665,2.6,2.6,0,0,1,.922,2.137,3.091,3.091,0,0,1-.766,2.153,2.779,2.779,0,0,1-2,.922,4.838,4.838,0,0,1-1.843-.208,4.369,4.369,0,0,0-1.69-.216,3.826,3.826,0,0,0-2.842,1.494,18.629,18.629,0,0,0-2.458,4.7v21.2a7.838,7.838,0,0,0,1,4.52,5.884,5.884,0,0,0,3.766,1.912v.691c-6.485.348-9.725.511-16.209.819" transform="translate(53.242 82.192)" fill="#ed0000"/><path d="M66.092,81.7C77.43,81.057,83.1,80.7,94.436,79.955v.693c-8.48,15.156-12.72,22.718-21.2,37.814,2-.117,3-.178,4.993-.3a17.61,17.61,0,0,0,7.528-2.005,15.316,15.316,0,0,0,5.415-5.223,36.135,36.135,0,0,0,3.956-8.981l.845-.057c-.831,6.753-1.245,10.131-2.074,16.884-12.353.817-18.528,1.2-30.88,1.882v-.689C71.5,104.907,75.74,97.357,84.22,82.229c-1.6.1-2.4.15-3.994.249a19.028,19.028,0,0,0-6.491,1.431A12.053,12.053,0,0,0,68.973,87.8a28.1,28.1,0,0,0-3.725,7.394c-.338.02-.507.028-.845.047.677-5.413,1.015-8.122,1.69-13.537" transform="translate(64.364 81.663)" fill="#ed0000"/><path d="M87.273,133.047a6.609,6.609,0,0,1-4.186-.865,3.224,3.224,0,0,1-1.573-2.816,2.988,2.988,0,0,1,.843-2.169,3.307,3.307,0,0,1,2.228-.956,2.921,2.921,0,0,1,1.615.311,7.326,7.326,0,0,1,1.3.908,8.318,8.318,0,0,0,1.267.912,2.57,2.57,0,0,0,1.5.317,3.692,3.692,0,0,0,2.341-1.09,10.318,10.318,0,0,0,2.038-3.291c1.043-2.319,1.565-3.477,2.612-5.8-4.334-9.977-6.5-14.972-10.832-24.964q-1.689-3.881-2.955-6.252a22.045,22.045,0,0,0-2.3-3.606,5.153,5.153,0,0,0-2.114-1.623v-.7c6.452-.429,9.678-.653,16.132-1.116v.7a3.215,3.215,0,0,0-2.23,3.151,6.8,6.8,0,0,0,.154,1.411,13.933,13.933,0,0,0,.538,1.769q.385,1.046,1.075,2.842c2.919,7.04,4.378,10.56,7.3,17.594,1.813-4.989,2.719-7.483,4.534-12.474a62.829,62.829,0,0,0,2.189-6.46,15.912,15.912,0,0,0,.574-3.731q0-3.608-4.223-4.827v-.7c5.375-.4,8.063-.606,13.442-1.027V79.2a8.494,8.494,0,0,0-2.074,1.506,12.913,12.913,0,0,0-2.038,2.692,50.472,50.472,0,0,0-2.341,4.558q-1.307,2.829-3.074,7.186c-3.964,9.638-5.943,14.457-9.909,24.085-1.045,2.349-1.565,3.523-2.612,5.872a17.749,17.749,0,0,1-3.956,5.854,8.552,8.552,0,0,1-5.262,2.1" transform="translate(80.743 80.18)" fill="#ed0000"/><path d="M98.546,104.576a28.354,28.354,0,0,0,6.567,9.468,10.607,10.607,0,0,0,8.1,2.723,6.69,6.69,0,0,0,4.57-2.031,6.564,6.564,0,0,0,1.651-4.631,5.849,5.849,0,0,0-1.152-3.705,9.879,9.879,0,0,0-3-2.515,35.035,35.035,0,0,0-4.071-1.932q-2.229-.894-4.417-1.868a23.1,23.1,0,0,1-4.071-2.329,10.182,10.182,0,0,1-3-3.333,9.9,9.9,0,0,1-1.114-4.906,11.341,11.341,0,0,1,1.5-5.8,11.6,11.6,0,0,1,4.186-4.172,16.032,16.032,0,0,1,9.678-1.817c.968.15,1.833.3,2.573.439a7.923,7.923,0,0,0,2.112.131,3.263,3.263,0,0,0,2.535-1.132l.614-.051c.552,4.96.829,7.441,1.383,12.4l-.768.065a26,26,0,0,0-5.492-7.988,8.273,8.273,0,0,0-6.414-2.316,6.351,6.351,0,0,0-4.148,1.757,5.427,5.427,0,0,0-1.536,4A4.268,4.268,0,0,0,106,88.088a11.331,11.331,0,0,0,3,2.179,38.293,38.293,0,0,0,4.071,1.819q2.229.855,4.455,1.9a21.97,21.97,0,0,1,4.109,2.5,10.77,10.77,0,0,1,3,3.588,11.151,11.151,0,0,1,1.114,5.207,13.391,13.391,0,0,1-1.536,6.5,12,12,0,0,1-4.378,4.554,14.982,14.982,0,0,1-6.683,2.052,27.164,27.164,0,0,1-4.34.044c-1.253-.1-2.369-.232-3.341-.382a11.594,11.594,0,0,0-2.688-.129,3.99,3.99,0,0,0-2.842,1.144l-.614.046c-.645-5.785-.968-8.68-1.613-14.469.338-.024.507-.038.845-.065" transform="translate(99.788 78.759)" fill="#ed0000"/><path d="M112.312,83.62a13.854,13.854,0,0,0,6.875-4.049,17.863,17.863,0,0,0,3.879-7.792c.277-.026.414-.036.691-.063V82.625c2.612-.23,3.917-.348,6.529-.58V84.2c-2.612.234-3.917.35-6.529.58v28.576a10.565,10.565,0,0,0,.461,3.493,3.636,3.636,0,0,0,1.575,1.932,9.319,9.319,0,0,0,3.034,1.037v.691c-6.606.59-9.909.879-16.515,1.443v-.689a3.36,3.36,0,0,0,2.036-1.6,7.525,7.525,0,0,0,.653-3.554V90.535a11.85,11.85,0,0,0-.576-4.293,3.444,3.444,0,0,0-2.112-1.93Z" transform="translate(114.711 73.248)" fill="#ed0000"/><path d="M132.6,116.54a12.792,12.792,0,0,1-6.222-.813,8.742,8.742,0,0,1-4.148-3.5,10.893,10.893,0,0,1-1.459-5.824q0-5.837,4.57-11.245T139.9,83.834q-1.076-3.969-2.535-5.409a4.869,4.869,0,0,0-4.071-1.2c-3.483.321-5.411,2.389-5.838,6.143-.245,2.163-1.178,3.333-2.765,3.477a2.377,2.377,0,0,1-1.959-.592,2.659,2.659,0,0,1-.73-2.007,6.031,6.031,0,0,1,1.728-4.073,13.151,13.151,0,0,1,4.686-3.192,22.214,22.214,0,0,1,6.721-1.615,18.3,18.3,0,0,1,7.643.633,9.11,9.11,0,0,1,4.8,3.845,20.111,20.111,0,0,1,2.535,7.481c1.352,7.952,2.027,11.928,3.38,19.878q.922,5.212,3.3,5.6v.691c-1.383.135-2.074.2-3.456.334q-4,.385-5.915-1.2t-2.765-5.729a18.358,18.358,0,0,1-4.993,6.844,12.793,12.793,0,0,1-7.067,2.8m-2.842-13.64q0,4.3,1.92,6.584a5.79,5.79,0,0,0,5.3,1.965,8.211,8.211,0,0,0,4.225-1.775,11.385,11.385,0,0,0,3.226-3.758c-1.443-7.269-2.165-10.9-3.61-18.174-.2-1.057-.41-1.981-.615-2.783a31.61,31.61,0,0,0-8.027,8.7,18.386,18.386,0,0,0-2.42,9.246" transform="translate(123.354 76.852)" fill="#ed0000"/><path d="M142.217,134.879a8.428,8.428,0,0,1-4.724-.663,2.99,2.99,0,0,1-1.805-2.783,2.807,2.807,0,0,1,2.612-2.86,2.079,2.079,0,0,1,1.844.554,5.544,5.544,0,0,1,1,1.552,6.176,6.176,0,0,0,.922,1.526,1.846,1.846,0,0,0,1.69.528q2.3-.224,2.3-2.992a7.659,7.659,0,0,0-.461-2.644q-.461-1.258-1.037-2.662a21.566,21.566,0,0,1-1-3.169,17.857,17.857,0,0,1-.422-4.142V90.237a11.735,11.735,0,0,0-.576-4.324,3.411,3.411,0,0,0-2.112-1.868v-.691c4.578-.9,6.867-1.356,11.445-2.268v40.171q0,6.146-2.535,9.66a9.507,9.507,0,0,1-7.144,3.962m4.762-67.445a4.648,4.648,0,0,1,3.61,1.029,4.123,4.123,0,0,1,1.459,3.313,5.086,5.086,0,0,1-1.459,3.56,5.5,5.5,0,0,1-3.61,1.775,4.7,4.7,0,0,1-3.649-1.065,4.109,4.109,0,0,1-1.5-3.271,4.981,4.981,0,0,1,1.5-3.6,5.743,5.743,0,0,1,3.649-1.736" transform="translate(138.587 68.844)" fill="#ed0000"/><path d="M156.468,74.837c11.338-1.156,17.006-1.744,28.344-2.939v.7c-8.48,15.486-12.72,23.223-21.2,38.689,2-.2,3-.307,4.993-.513a18.324,18.324,0,0,0,7.528-2.318,16.245,16.245,0,0,0,5.415-5.444,37.756,37.756,0,0,0,3.958-9.137l.843-.089c-.829,6.786-1.243,10.18-2.074,16.965-12.351,1.3-18.528,1.943-30.878,3.2v-.691c8.48-15.455,12.72-23.191,21.2-38.669-1.6.168-2.4.251-4,.416a19.48,19.48,0,0,0-6.491,1.708,12.825,12.825,0,0,0-4.762,4.1,29.618,29.618,0,0,0-3.725,7.562l-.845.085c.677-5.446,1.015-8.168,1.69-13.614" transform="translate(156.673 73.434)" fill="#ed0000"/><path d="M178.437,111.69V111a3.32,3.32,0,0,0,2.074-1.682,8.026,8.026,0,0,0,.614-3.525V80.217a11.745,11.745,0,0,0-.576-4.281,3.337,3.337,0,0,0-2.112-1.886v-.691c4.425-1.055,6.636-1.587,11.061-2.646.154,2.749.23,4.124.386,6.871a16.809,16.809,0,0,1,4.914-5.872,13.587,13.587,0,0,1,6.759-2.69q5.606-.609,8.759,2.545t3.149,9.446c0,8.51,0,12.767,0,21.277a7.141,7.141,0,0,0,.615,3.392,2.5,2.5,0,0,0,2.074,1.233v.691c-5.684.623-8.526.932-14.21,1.548v-.691a3.326,3.326,0,0,0,2.074-1.686,8.02,8.02,0,0,0,.615-3.525V83.666q0-10.294-7.6-9.466a9.366,9.366,0,0,0-3.8,1.334,11.754,11.754,0,0,0-3.339,3.05c0,10.505,0,15.759,0,26.266a6.773,6.773,0,0,0,.653,3.388,2.568,2.568,0,0,0,2.036,1.241v.691c-5.654.61-8.48.916-14.133,1.52" transform="translate(182.249 70.395)" fill="#ed0000"/><path d="M209.388,108.659a12.705,12.705,0,0,1-6.222-.7,8.5,8.5,0,0,1-4.148-3.422,10.737,10.737,0,0,1-1.459-5.8q0-5.837,4.57-11.332t14.556-11.58q-1.079-3.951-2.537-5.367a4.8,4.8,0,0,0-4.069-1.13c-3.485.382-5.411,2.488-5.838,6.25-.247,2.167-1.18,3.355-2.765,3.527a2.339,2.339,0,0,1-1.961-.554,2.6,2.6,0,0,1-.728-1.993,6.142,6.142,0,0,1,1.726-4.105,13.458,13.458,0,0,1,4.688-3.281,22.387,22.387,0,0,1,6.721-1.736,18.168,18.168,0,0,1,7.641.509,8.894,8.894,0,0,1,4.8,3.772,19.784,19.784,0,0,1,2.535,7.443c1.352,7.932,2.027,11.9,3.382,19.832q.922,5.2,3.3,5.551v.691l-3.456.38q-4,.44-5.915-1.12c-1.277-1.035-2.205-2.933-2.767-5.684a18.794,18.794,0,0,1-4.993,6.923,13.054,13.054,0,0,1-7.065,2.923m-2.842-13.59q0,4.3,1.918,6.549a5.708,5.708,0,0,0,5.3,1.874,8.374,8.374,0,0,0,4.225-1.846,11.6,11.6,0,0,0,3.224-3.808c-1.441-7.247-2.165-10.871-3.608-18.115-.2-1.057-.412-1.977-.615-2.775a32.324,32.324,0,0,0-8.027,8.831,18.626,18.626,0,0,0-2.42,9.29" transform="translate(201.78 68.709)" fill="#ed0000"/><path d="M219,126.8a8.372,8.372,0,0,1-4.722-.6,2.939,2.939,0,0,1-1.805-2.759,2.823,2.823,0,0,1,.728-1.959,2.858,2.858,0,0,1,1.884-.938,2.063,2.063,0,0,1,1.844.528,5.506,5.506,0,0,1,1,1.542,6.053,6.053,0,0,0,.92,1.512,1.823,1.823,0,0,0,1.692.505q2.3-.252,2.3-3.02a7.563,7.563,0,0,0-.461-2.638c-.305-.835-.651-1.722-1.035-2.65a21.439,21.439,0,0,1-1-3.155,17.815,17.815,0,0,1-.422-4.14V82.142a11.67,11.67,0,0,0-.576-4.316,3.349,3.349,0,0,0-2.112-1.839V75.3c4.578-.964,6.867-1.445,11.445-2.407v40.171q0,6.146-2.535,9.69A9.662,9.662,0,0,1,219,126.8m4.764-67.505a4.6,4.6,0,0,1,3.61.986,4.078,4.078,0,0,1,1.459,3.3,5.14,5.14,0,0,1-1.459,3.574,5.586,5.586,0,0,1-3.61,1.817,4.642,4.642,0,0,1-3.649-1.021,4.059,4.059,0,0,1-1.5-3.25,5.039,5.039,0,0,1,1.5-3.622,5.829,5.829,0,0,1,3.649-1.783" transform="translate(217.012 60.52)" fill="#ed0000"/><path d="M222.448,112.891V112.2a3.479,3.479,0,0,0,2.036-1.643,7.628,7.628,0,0,0,.653-3.57c0-16.163,0-24.242,0-40.4a10.735,10.735,0,0,0-.576-4.162,3.665,3.665,0,0,0-2.114-1.846v-.689c4.611-.659,6.915-.988,11.524-1.643,0,19.11,0,28.663,0,47.775a7.1,7.1,0,0,0,.614,3.43,2.534,2.534,0,0,0,2.074,1.2v.689c-5.684.621-8.526.932-14.21,1.554" transform="translate(227.2 59.489)" fill="#ed0000"/><path d="M247.876,104.548A16.026,16.026,0,0,1,238.467,103a14.567,14.567,0,0,1-6.26-6.58,23.742,23.742,0,0,1-2.228-10.739,26.627,26.627,0,0,1,1.229-8.2,22.331,22.331,0,0,1,3.457-6.751,18.676,18.676,0,0,1,5.262-4.758,16.1,16.1,0,0,1,6.644-2.219,14.433,14.433,0,0,1,7.412.93,10.252,10.252,0,0,1,4.916,4.386,14.278,14.278,0,0,1,1.728,7.228v1.536c-9.434,1.011-14.15,1.522-23.581,2.547a21.614,21.614,0,0,0,2.074,9.068,13.587,13.587,0,0,0,5.185,5.813,11.631,11.631,0,0,0,7.412,1.506,12.31,12.31,0,0,0,8.449-4.213l.461.18q-3.92,10.864-12.751,11.819m-2-39.037a8.4,8.4,0,0,0-6.3,4.027,17.6,17.6,0,0,0-2.535,9.375c2.979-.416,4.471-.623,7.451-1.037q4.224-.534,6.107-1.967a4.946,4.946,0,0,0,1.882-4.2,6.326,6.326,0,0,0-1.805-4.8,5.713,5.713,0,0,0-4.8-1.4" transform="translate(234.892 64.992)" fill="#ed0000"/><path d="M245.551,117.346v-.691a3.539,3.539,0,0,0,2.072-1.488,5.779,5.779,0,0,0,.617-2.945V72.661a10.74,10.74,0,0,0-.576-4.164,3.659,3.659,0,0,0-2.112-1.85v-.691c4.364-1.049,6.545-1.575,10.907-2.62.123,2.353.184,3.529.307,5.882a13.99,13.99,0,0,1,4.34-5.033,12.779,12.779,0,0,1,6.26-2.387,12.563,12.563,0,0,1,8.257,1.71,14.534,14.534,0,0,1,5.454,6.616,26.054,26.054,0,0,1,1.959,10.626,26.337,26.337,0,0,1-1.229,8.118,23.9,23.9,0,0,1-3.457,6.848,18.651,18.651,0,0,1-5.185,4.88,15.667,15.667,0,0,1-16.322.028v8.528a6.88,6.88,0,0,0,1,4.194,5.127,5.127,0,0,0,3.457,1.633c0,.275,0,.414,0,.691-6.3.665-9.446,1-15.744,1.674M256.842,78.2q0,11.679,2.727,17.533t7.718,5.33a7.418,7.418,0,0,0,5.724-3.826,17,17,0,0,0,2.112-8.977,33.724,33.724,0,0,0-1.037-8.417,28.192,28.192,0,0,0-2.842-7.158,15.6,15.6,0,0,0-4.071-4.795,6.508,6.508,0,0,0-4.647-1.431,6.777,6.777,0,0,0-3.188,1.221,8.778,8.778,0,0,0-2.5,2.682Z" transform="translate(250.797 63.025)" fill="#ed0000"/><path d="M265.715,87.779A27.529,27.529,0,0,0,272.28,97.1a10.473,10.473,0,0,0,8.106,2.557,6.853,6.853,0,0,0,4.57-2.114,6.67,6.67,0,0,0,1.651-4.659,5.752,5.752,0,0,0-1.154-3.685,9.6,9.6,0,0,0-2.994-2.464,33.665,33.665,0,0,0-4.073-1.856q-2.226-.852-4.417-1.779a22.659,22.659,0,0,1-4.069-2.238,9.192,9.192,0,0,1-4.11-8.142,11.55,11.55,0,0,1,1.5-5.838,12,12,0,0,1,4.188-4.271,14.672,14.672,0,0,1,6.3-2.021,14.442,14.442,0,0,1,3.38.006c.97.133,1.833.265,2.573.392a7.764,7.764,0,0,0,2.11.1,3.314,3.314,0,0,0,2.535-1.174l.616-.061c.55,4.952.829,7.429,1.383,12.383l-.77.075a25.373,25.373,0,0,0-5.49-7.9,8.111,8.111,0,0,0-6.414-2.2,6.482,6.482,0,0,0-4.148,1.841,5.527,5.527,0,0,0-1.536,4.033,4.18,4.18,0,0,0,1.152,3.034,11.079,11.079,0,0,0,3,2.116,38.319,38.319,0,0,0,4.071,1.738q2.226.813,4.453,1.819a21.349,21.349,0,0,1,4.111,2.428,10.575,10.575,0,0,1,3,3.543,11.063,11.063,0,0,1,1.11,5.193,13.5,13.5,0,0,1-1.534,6.527,12.325,12.325,0,0,1-4.376,4.623,15.326,15.326,0,0,1-6.685,2.167,27.378,27.378,0,0,1-4.338.131q-1.883-.115-3.341-.313a11.6,11.6,0,0,0-2.688-.069,4.091,4.091,0,0,0-2.844,1.213c-.245.024-.368.036-.612.063-.645-5.773-.968-8.66-1.613-14.431l.845-.087" transform="translate(270.529 61.125)" fill="#ed0000"/><path d="M281.8,61.371c11.338-1.116,17.006-1.662,28.342-2.717v.7c-8.48,15.383-12.719,23.082-21.2,38.5,2-.194,2.994-.291,4.991-.481a18.282,18.282,0,0,0,7.528-2.256,16.053,16.053,0,0,0,5.415-5.387,37.332,37.332,0,0,0,3.958-9.092c.338-.03.505-.047.843-.079-.829,6.776-1.243,10.165-2.074,16.943-12.35,1.15-18.526,1.746-30.878,2.969v-.691c8.482-15.435,12.723-23.145,21.2-38.545-1.6.152-2.4.226-3.994.38a19.289,19.289,0,0,0-6.491,1.666,12.681,12.681,0,0,0-4.762,4.073,29.416,29.416,0,0,0-3.725,7.546l-.845.085c.677-5.444,1.015-8.166,1.69-13.61" transform="translate(284.677 59.907)" fill="#ed0000"/><path d="M302.976,111.858a6.548,6.548,0,0,1-4.186-.768,3.137,3.137,0,0,1-1.575-2.777,3.049,3.049,0,0,1,.845-2.189,3.39,3.39,0,0,1,2.228-1.011,2.9,2.9,0,0,1,1.615.273,7.147,7.147,0,0,1,1.306.879,7.857,7.857,0,0,0,1.265.883,2.539,2.539,0,0,0,1.5.287,3.766,3.766,0,0,0,2.343-1.136,10.563,10.563,0,0,0,2.036-3.329l2.612-5.844c-4.332-9.9-6.5-14.857-10.828-24.752q-1.692-3.842-2.957-6.183a20.992,20.992,0,0,0-2.3-3.55,4.942,4.942,0,0,0-2.112-1.569v-.7c6.452-.6,9.678-.9,16.13-1.474v.7a3.288,3.288,0,0,0-2.228,3.194,6.628,6.628,0,0,0,.154,1.407,13.424,13.424,0,0,0,.538,1.759c.255.691.612,1.635,1.075,2.822,2.917,6.988,4.378,10.483,7.3,17.477,1.813-5.015,2.719-7.521,4.532-12.532a62.3,62.3,0,0,0,2.191-6.489,15.883,15.883,0,0,0,.576-3.735q0-3.608-4.227-4.779v-.693c5.379-.471,8.067-.7,13.444-1.154v.7a8.5,8.5,0,0,0-2.076,1.518,13.119,13.119,0,0,0-2.036,2.707,51.175,51.175,0,0,0-2.343,4.578q-1.3,2.841-3.072,7.216c-3.964,9.682-5.945,14.526-9.909,24.218-1.045,2.367-1.567,3.549-2.612,5.919a18.333,18.333,0,0,1-3.956,5.925,8.763,8.763,0,0,1-5.262,2.207" transform="translate(301.056 58.09)" fill="#ed0000"/><path d="M329.22,96.782a14.02,14.02,0,0,1-8.757-1.932,15.275,15.275,0,0,1-5.836-6.921,26.262,26.262,0,0,1-2.074-10.887,26.624,26.624,0,0,1,1.152-7.934,22,22,0,0,1,3.263-6.571,17.732,17.732,0,0,1,4.88-4.593,13.348,13.348,0,0,1,6.066-2,16.405,16.405,0,0,1,3.574.061c1.045.146,1.959.305,2.727.473a6.773,6.773,0,0,0,1.92.19,2.5,2.5,0,0,0,2-1.152l.615-.046c.615,5.45.92,8.174,1.534,13.626-.305.024-.461.036-.766.059a30.482,30.482,0,0,0-5.876-8.945,7.963,7.963,0,0,0-6.185-2.539,7,7,0,0,0-4.261,1.85,10.753,10.753,0,0,0-2.8,4.417,18.527,18.527,0,0,0-1,6.307,26.528,26.528,0,0,0,1.073,7.707,19.133,19.133,0,0,0,3.036,6.125,13.382,13.382,0,0,0,4.568,3.887,10.359,10.359,0,0,0,5.607,1.088,10.783,10.783,0,0,0,7.22-3.642c.186.079.277.119.461.2a20.6,20.6,0,0,1-4.954,8.106,11.65,11.65,0,0,1-7.182,3.068" transform="translate(319.231 56.656)" fill="#ed0000"/><path d="M350.63,100.7v-.691a3.157,3.157,0,0,0,2.074-1.6,7.86,7.86,0,0,0,.615-3.5V75.32q0-10.291-7.6-9.753a8.806,8.806,0,0,0-3.764,1.2,11.33,11.33,0,0,0-3.3,2.931V96.655a5.1,5.1,0,0,0,.653,2.87,2.833,2.833,0,0,0,2.035,1.156v.691c-5.684.416-8.526.631-14.21,1.069v-.689a3.451,3.451,0,0,0,2.036-1.465,5.634,5.634,0,0,0,.653-2.967V56.226a10.884,10.884,0,0,0-.576-4.18,3.817,3.817,0,0,0-2.112-1.914v-.689c4.609-.509,6.913-.762,11.522-1.255v20.43a15.59,15.59,0,0,1,4.916-5.658,13.106,13.106,0,0,1,6.683-2.4q5.682-.4,8.795,2.889t3.111,9.581V94.3a7.307,7.307,0,0,0,.614,3.418,2.632,2.632,0,0,0,2.074,1.324v.691c-5.684.374-8.526.568-14.21.968" transform="translate(334.115 49.216)" fill="#ed0000"/><path d="M372.693,93.717a17.766,17.766,0,0,1-7.451-1.087,15.966,15.966,0,0,1-5.876-3.925,17.929,17.929,0,0,1-3.841-6.262,23.458,23.458,0,0,1-1.344-8.174,24.846,24.846,0,0,1,1.344-8.34,20.48,20.48,0,0,1,3.841-6.679,18.949,18.949,0,0,1,5.876-4.562,18.725,18.725,0,0,1,7.451-1.91,17.852,17.852,0,0,1,7.489,1.11,15.778,15.778,0,0,1,5.876,3.93,18.141,18.141,0,0,1,3.8,6.268,23.667,23.667,0,0,1,1.344,8.2A24.733,24.733,0,0,1,389.86,80.6a20.673,20.673,0,0,1-3.841,6.675,18.541,18.541,0,0,1-5.876,4.556,18.913,18.913,0,0,1-7.451,1.888m0-39.326q-4.227.227-6.606,5.278t-2.381,14.04q0,8.984,2.381,13.8t6.606,4.593q4.224-.227,6.606-5.3t2.381-14.061q0-8.99-2.381-13.784t-6.606-4.568" transform="translate(361.748 53.873)" fill="#ed0000"/><path d="M373.017,99.778v-.691a3.061,3.061,0,0,0,2.074-1.556,7.754,7.754,0,0,0,.614-3.485V68.471a12.059,12.059,0,0,0-.576-4.318,3.635,3.635,0,0,0-2.112-2.015v-.689a3.421,3.421,0,0,0,2-1.4,6.918,6.918,0,0,0,.922-3.034q.767-5.646,3.533-8.686a9.693,9.693,0,0,1,7.067-3.216,8.341,8.341,0,0,1,5.146,1.176,4.068,4.068,0,0,1,1.92,3.533,2.991,2.991,0,0,1-.73,2.106,2.794,2.794,0,0,1-2.036.843c-1.587.063-2.583-.823-3-2.644a5.224,5.224,0,0,0-1.037-2.377,2.3,2.3,0,0,0-1.882-.653,3.713,3.713,0,0,0-3.073,1.858A8.374,8.374,0,0,0,380.7,53.58a6.793,6.793,0,0,0,2.189,5.472,8.562,8.562,0,0,0,6.107,1.706c1.168-.046,1.75-.069,2.919-.113V62.8c-2.979.115-4.471.176-7.451.3V91.9a7.888,7.888,0,0,0,1,4.53,6,6,0,0,0,3.764,1.961v.689c-6.483.259-9.725.4-16.207.7" transform="translate(380.986 46.065)" fill="#ed0000"/><path d="M398.905,92.535a16.8,16.8,0,0,1-9.409-2.248,16.176,16.176,0,0,1-6.26-7.024,24.738,24.738,0,0,1-2.227-10.893,25.8,25.8,0,0,1,1.229-8.114,20.513,20.513,0,0,1,3.457-6.511,16.73,16.73,0,0,1,5.261-4.378,15.057,15.057,0,0,1,6.644-1.728,14.9,14.9,0,0,1,7.412,1.5,11.477,11.477,0,0,1,4.916,4.772,15.064,15.064,0,0,1,1.728,7.368v1.536c-9.434.253-14.15.4-23.581.752a22.606,22.606,0,0,0,2.074,9.217,15.133,15.133,0,0,0,5.185,6.2,12.282,12.282,0,0,0,7.412,2.066A11.327,11.327,0,0,0,411.2,81.5l.461.216q-3.917,10.552-12.751,10.822m-2-39.184a7.671,7.671,0,0,0-6.3,3.562,16.649,16.649,0,0,0-2.535,9.193c2.979-.2,4.469-.3,7.451-.493,2.816-.148,4.851-.645,6.107-1.506a4.56,4.56,0,0,0,1.882-4.053,6.794,6.794,0,0,0-1.805-4.934,6.082,6.082,0,0,0-4.8-1.769" transform="translate(389.148 52.731)" fill="#ed0000"/><path d="M396.82,91.6V90.91a2.979,2.979,0,0,0,2.074-1.512,7.688,7.688,0,0,0,.614-3.475V60.2a11.134,11.134,0,0,0-.576-4.21,4.118,4.118,0,0,0-2.112-2.021v-.691c4.425-.7,6.636-1.043,11.061-1.718l.384,8.9a17.849,17.849,0,0,1,3.456-6.6,6.39,6.39,0,0,1,4.686-2.466,3.675,3.675,0,0,1,2.535.762,2.716,2.716,0,0,1,.922,2.175,2.973,2.973,0,0,1-.768,2.122,2.668,2.668,0,0,1-2,.843,4.918,4.918,0,0,1-1.843-.277,4.484,4.484,0,0,0-1.69-.277,3.675,3.675,0,0,0-2.842,1.4,17.814,17.814,0,0,0-2.458,4.621v21.2a8,8,0,0,0,1,4.552,6.14,6.14,0,0,0,3.764,2.038v.691c-6.483.121-9.725.194-16.207.364" transform="translate(405.297 52.487)" fill="#ed0000"/><path d="M408.729,57.658A12.739,12.739,0,0,0,415.6,54.11a16.321,16.321,0,0,0,3.879-7.5l.691-.006V57.516c2.612-.024,3.917-.034,6.529-.051v2.151c-2.612.018-3.917.026-6.529.053V88.243a10.906,10.906,0,0,0,.461,3.529,4.078,4.078,0,0,0,1.575,2.06,10.2,10.2,0,0,0,3.034,1.282V95.8c-6.606.046-9.909.083-16.515.182V95.3a3.047,3.047,0,0,0,2.036-1.449,7.234,7.234,0,0,0,.653-3.507V64.765a12.2,12.2,0,0,0-.576-4.334,3.8,3.8,0,0,0-2.112-2.082Z" transform="translate(417.461 47.605)" fill="#ed0000"/><path d="M423.894,97.7a5.612,5.612,0,0,1-5.684-5.66,5.293,5.293,0,0,1,1.651-3.925,5.57,5.57,0,0,1,4.033-1.629,5.411,5.411,0,0,1,3.994,1.6,5.33,5.33,0,0,1,1.613,3.917,5.56,5.56,0,0,1-1.613,4.035,5.371,5.371,0,0,1-3.994,1.658m-.307-17.357q-1.307-6.828-2.5-12.474t-1.959-9.747a36.971,36.971,0,0,1-.768-6.252,7.656,7.656,0,0,1,1.459-5.043,5.657,5.657,0,0,1,8.142-.022,7.615,7.615,0,0,1,1.459,5.033,33.373,33.373,0,0,1-.96,7.028q-.961,4.263-2.228,9.678a109.377,109.377,0,0,0-2.035,11.8c-.245,0-.368,0-.615,0" transform="translate(427.144 46.05)" fill="#ed0000"/></g></svg>