<svg xmlns="http://www.w3.org/2000/svg" xmlns:xlink="http://www.w3.org/1999/xlink" width="590.756" height="541.53" viewBox="0 0 590.756 541.53">
  <defs>
    <clipPath id="clip-path">
      <rect id="Rectangle_61" data-name="Rectangle 61" width="590.756" height="541.53" fill="none"/>
    </clipPath>
    <clipPath id="clip-path-2">
      <rect id="Rectangle_62" data-name="Rectangle 62" width="137.478" height="132" fill="#ed0000"/>
    </clipPath>
  </defs>
  <g id="Group_155" data-name="Group 155" transform="translate(-664.622 -5000.735)">
    <g id="Group_104" data-name="Group 104" transform="translate(664.622 5000.735)">
      <g id="Group_103" data-name="Group 103" clip-path="url(#clip-path)">
        <path id="Path_119" data-name="Path 119" d="M218.07,59.027C160.862-39.141,0-10.482,0,112.525c0,84.7,101.24,171.312,218.069,287.272C334.919,283.837,436.14,197.228,436.14,112.525c0-123.426-161.282-150.939-218.069-53.5" transform="translate(77.308 70.868)" fill="#ed0000"/>
        <path id="Path_120" data-name="Path 120" d="M223.93,81.816C173.8-4.214,32.824,20.9,32.824,128.7c0,74.23,88.721,150.13,191.106,251.752C326.33,278.83,415.035,202.93,415.035,128.7c0-108.165-141.34-132.276-191.106-46.884" transform="translate(71.449 65.497)" fill="#f5efe7"/>
        <path id="Path_121" data-name="Path 121" d="M239.612,111.061C195.517,35.395,71.525,57.484,71.525,152.3c0,65.287,78.034,132.048,168.087,221.428C329.678,284.346,407.7,217.586,407.7,152.3c0-95.138-124.315-116.345-168.088-41.237" transform="translate(55.767 51.121)" fill="#ed0000"/>
        <path id="Path_122" data-name="Path 122" d="M254.106,137.511C215.356,71.016,106.4,90.429,106.4,173.751c0,57.372,68.573,116.039,147.71,194.584,79.149-78.545,147.709-137.212,147.709-194.584,0-83.605-109.244-102.242-147.709-36.24" transform="translate(41.273 37.833)" fill="#f5efe7"/>
      </g>
    </g>
    <g id="Group_108" data-name="Group 108" transform="translate(891.261 5188)">
      <g id="Group_107" data-name="Group 107" transform="translate(0 0)" clip-path="url(#clip-path-2)">
        <path id="Path_123" data-name="Path 123" d="M16.239,11v54.47a7.992,7.992,0,0,0,.812,4.206,3.669,3.669,0,0,0,2.891,1.435v.9A143.893,143.893,0,0,1,1.966,73.284v-.9A4.231,4.231,0,0,0,4.9,70.545a9.124,9.124,0,0,0,.766-4.318V26.93q0-3.973-1.174-5.831A6.153,6.153,0,0,0,.251,18.646v-.9a24.972,24.972,0,0,0,9.392-2.174,13.228,13.228,0,0,0,5.6-4.467c.4-.038.6-.058.995-.1" transform="translate(0.231 10.13)" fill="#ed0000"/>
        <path id="Path_124" data-name="Path 124" d="M36.234,70.916a18.84,18.84,0,0,1-9.845-.242,16.769,16.769,0,0,1-7.59-5.019,24.776,24.776,0,0,1-4.877-9.094A41.745,41.745,0,0,1,12.206,44.11a46.731,46.731,0,0,1,1.715-12.93,36.53,36.53,0,0,1,4.877-10.6,29.984,29.984,0,0,1,7.59-7.719,26.942,26.942,0,0,1,9.845-4.275,20.789,20.789,0,0,1,9.849-.015,15.679,15.679,0,0,1,7.587,4.573,22.882,22.882,0,0,1,4.879,8.724,40.018,40.018,0,0,1,1.717,12.279,48.5,48.5,0,0,1-1.717,13.1,39.562,39.562,0,0,1-4.879,11.015,31.249,31.249,0,0,1-7.587,8.165,25.387,25.387,0,0,1-9.849,4.487m0-1.988c3.916-.851,6.926-4.062,9.035-9.58s3.163-12.982,3.163-22.378q0-14.362-3.117-21.039c-2.078-4.456-5.105-6.223-9.081-5.359s-7,3.939-9.079,9.279-3.115,12.78-3.115,22.355q0,14.094,3.16,21.041c2.109,4.621,5.119,6.532,9.035,5.681" transform="translate(11.238 7.356)" fill="#ed0000"/>
        <path id="Path_125" data-name="Path 125" d="M53.631,38.793a13.868,13.868,0,0,1-7.994-.311,10.743,10.743,0,0,1-5.464-4.494,14.619,14.619,0,0,1-1.986-7.882,20.735,20.735,0,0,1,1.94-8.864,20.406,20.406,0,0,1,5.466-7.114,18.609,18.609,0,0,1,8.038-3.945,13.385,13.385,0,0,1,8.086.421,11.189,11.189,0,0,1,5.462,4.782,15.469,15.469,0,0,1,1.99,8.044,19.375,19.375,0,0,1-1.99,8.712,20.2,20.2,0,0,1-5.462,6.828,19.2,19.2,0,0,1-8.086,3.824m0-1.537c4.515-.993,6.774-6.346,6.774-16.161q0-7.318-1.715-10.714c-1.145-2.261-2.831-3.156-5.059-2.666s-3.93,2.128-5.1,4.9-1.761,6.592-1.761,11.47q0,7.228,1.761,10.569c1.174,2.232,2.875,3.094,5.1,2.6M89.4.858C90.56.762,91.138.72,92.294.645,77.993,22.658,64.516,45.16,51.1,67.721c-1.154.259-1.732.39-2.889.655C61.65,45.687,75.145,23.044,89.4.858m-2.62,61.206a15.026,15.026,0,0,1-8-1.189A12.38,12.38,0,0,1,73.324,55.9a15.419,15.419,0,0,1-1.986-8.03,19.754,19.754,0,0,1,1.94-8.72,17.717,17.717,0,0,1,5.466-6.638,15.858,15.858,0,0,1,8.04-3.063,13.506,13.506,0,0,1,8.084,1.531,13.893,13.893,0,0,1,5.466,5.651,17.406,17.406,0,0,1,1.986,8.388,17.353,17.353,0,0,1-1.986,8.37,16.281,16.281,0,0,1-5.466,5.954,17.433,17.433,0,0,1-8.084,2.718m0-1.537c4.517-.436,6.774-5.43,6.774-15.246q0-7.321-1.715-10.961c-1.145-2.42-2.831-3.546-5.059-3.33s-3.93,1.665-5.105,4.308-1.761,6.411-1.761,11.29q0,7.226,1.761,10.75c1.175,2.357,2.877,3.405,5.105,3.19" transform="translate(35.158 0.595)" fill="#ed0000"/>
        <path id="Path_126" data-name="Path 126" d="M0,82.589v-.5a2.1,2.1,0,0,0,1.5-1.064,5.562,5.562,0,0,0,.446-2.514V59.852a8.122,8.122,0,0,0-.419-3.058A3.081,3.081,0,0,0,0,55.3v-.5c3.209-.423,4.811-.682,8.021-1.275L8.3,59.969a13.732,13.732,0,0,1,2.5-4.89,5.092,5.092,0,0,1,3.4-2,2.535,2.535,0,0,1,1.838.413,1.811,1.811,0,0,1,.668,1.521,2.335,2.335,0,0,1-.557,1.586,2.115,2.115,0,0,1-1.448.724,3.42,3.42,0,0,1-1.339-.106,3.164,3.164,0,0,0-1.223-.125,2.86,2.86,0,0,0-2.061,1.124A13.6,13.6,0,0,0,8.3,61.64V77.011a5.667,5.667,0,0,0,.724,3.273,4.113,4.113,0,0,0,2.729,1.348v.5c-4.7.353-7.053.455-11.753.455" transform="translate(0 48.855)" fill="#ed0000"/>
        <path id="Path_127" data-name="Path 127" d="M17.239,82.185a8.82,8.82,0,0,1-4.512-.4,6.052,6.052,0,0,1-3.008-2.466,7.8,7.8,0,0,1-1.06-4.206,12.8,12.8,0,0,1,3.315-8.219c2.209-2.675,5.727-5.539,10.556-8.754a8.285,8.285,0,0,0-1.838-3.8,3.425,3.425,0,0,0-2.952-.693c-2.526.371-3.926,1.909-4.233,4.644-.177,1.577-.855,2.449-2.005,2.583a1.692,1.692,0,0,1-1.421-.4,1.9,1.9,0,0,1-.528-1.446,4.458,4.458,0,0,1,1.254-2.979,10.17,10.17,0,0,1,3.4-2.418,17.752,17.752,0,0,1,4.875-1.412,13.806,13.806,0,0,1,5.541.071A5.929,5.929,0,0,1,28.1,54.792a13.383,13.383,0,0,1,1.838,5.251c.98,5.67,1.469,8.5,2.451,14.169q.666,3.711,2.4,3.8v.5c-1,.207-1.5.309-2.506.507-1.932.384-3.361.227-4.289-.457s-1.6-2.009-2.005-3.978a14.707,14.707,0,0,1-3.62,5.243,9.647,9.647,0,0,1-5.124,2.353m-2.061-9.793A6.948,6.948,0,0,0,16.57,77.1a3.955,3.955,0,0,0,3.843,1.21,6.345,6.345,0,0,0,3.063-1.5,9.181,9.181,0,0,0,2.339-2.914c-1.047-5.182-1.571-7.775-2.618-12.968q-.222-1.132-.446-1.986a25.719,25.719,0,0,0-5.822,6.667,13.808,13.808,0,0,0-1.754,6.786" transform="translate(7.972 47.865)" fill="#ed0000"/>
        <path id="Path_128" data-name="Path 128" d="M37.205,82.448a10.717,10.717,0,0,1-3.536.319,11.063,11.063,0,0,1-2.564-.563q-1.083-.395-1.978-.672a3.466,3.466,0,0,0-1.78-.083c-1.3.284-2.3,1.515-3.01,3.707l-.5.106V51.508a7.423,7.423,0,0,0-.419-2.977,2.318,2.318,0,0,0-1.531-1.189v-.5c3.275-.778,4.913-1.189,8.19-2.03V58.9A11.945,11.945,0,0,1,33.2,54.912a10.735,10.735,0,0,1,4.51-2.266,8.693,8.693,0,0,1,5.989.449,8.694,8.694,0,0,1,3.955,4.26,17.549,17.549,0,0,1,1.419,7.516,20.4,20.4,0,0,1-3.4,11.311,16.59,16.59,0,0,1-3.761,4.045,12.391,12.391,0,0,1-4.708,2.222m-7.13-16.973q0,8.413,1.949,12.457t5.628,3.188A6.387,6.387,0,0,0,41.8,77.8a13.467,13.467,0,0,0,1.533-6.713,23.289,23.289,0,0,0-.753-6,18.545,18.545,0,0,0-2.032-4.921,9.341,9.341,0,0,0-2.9-3.1,4.349,4.349,0,0,0-3.4-.605,5.636,5.636,0,0,0-2.339,1.2,8.14,8.14,0,0,0-1.838,2.14Z" transform="translate(20.15 41.257)" fill="#ed0000"/>
        <path id="Path_129" data-name="Path 129" d="M45.046,76.437a9.093,9.093,0,0,1-4.512.065,5.152,5.152,0,0,1-3.006-2.092,7.094,7.094,0,0,1-1.06-4.062A14.457,14.457,0,0,1,39.781,61.7a50.327,50.327,0,0,1,10.556-9.715A7.654,7.654,0,0,0,48.5,48.314a3.231,3.231,0,0,0-2.954-.455c-2.524.592-3.924,2.3-4.231,5.067-.177,1.6-.855,2.543-2.005,2.818a1.57,1.57,0,0,1-1.419-.219,1.671,1.671,0,0,1-.528-1.375,5.066,5.066,0,0,1,1.252-3.14,11.738,11.738,0,0,1,3.4-2.816,17.841,17.841,0,0,1,4.875-1.871,12.856,12.856,0,0,1,5.539-.294,5.508,5.508,0,0,1,3.482,2.345,13,13,0,0,1,1.838,5.2c.98,5.649,1.469,8.474,2.451,14.13q.666,3.7,2.4,3.8V72c-1,.2-1.5.3-2.506.513-1.932.4-3.361.29-4.289-.363s-1.6-1.949-2.005-3.9a16.046,16.046,0,0,1-3.619,5.437,10.992,10.992,0,0,1-5.124,2.748m-2.061-9.594a6.411,6.411,0,0,0,1.392,4.571,3.775,3.775,0,0,0,3.841.887A7.087,7.087,0,0,0,51.284,70.6a10.02,10.02,0,0,0,2.337-3.033c-1.047-5.136-1.571-7.7-2.618-12.834-.148-.745-.3-1.4-.444-1.959a27.756,27.756,0,0,0-5.822,7.116,14.774,14.774,0,0,0-1.754,6.957" transform="translate(33.575 42.208)" fill="#ed0000"/>
        <path id="Path_130" data-name="Path 130" d="M50.3,49.484a11.858,11.858,0,0,0,4.986-3.471A14.5,14.5,0,0,0,58.1,40.105c.2-.036.3-.054.5-.088v7.909c1.9-.328,2.843-.484,4.736-.778v1.558c-1.894.294-2.841.451-4.736.778V70.2a7.371,7.371,0,0,0,.336,2.5,2.352,2.352,0,0,0,1.141,1.31,6.561,6.561,0,0,0,2.2.588v.5c-4.788.763-7.183,1.208-11.973,2.168v-.5a2.849,2.849,0,0,0,1.477-1.323,5.784,5.784,0,0,0,.472-2.626V54.278a8.175,8.175,0,0,0-.419-3.065A2.123,2.123,0,0,0,50.3,49.985Z" transform="translate(46.31 36.843)" fill="#ed0000"/>
        <path id="Path_131" data-name="Path 131" d="M67.469,72.312c-2.674.28-4.708-.271-6.1-1.717s-2.09-3.718-2.09-6.838V50.166a8.312,8.312,0,0,0-.419-3.085,2.267,2.267,0,0,0-1.531-1.3v-.5c3.321-.932,4.98-1.371,8.3-2.176v18.1q0,4.175,1.254,5.933a4.014,4.014,0,0,0,3.926,1.508A7.311,7.311,0,0,0,75.936,65.6V48.445a8.67,8.67,0,0,0-.417-3.121,2.56,2.56,0,0,0-1.531-1.433v-.5c3.319-.653,4.978-.941,8.3-1.421V65.922a8.067,8.067,0,0,0,.444,3.142,2.176,2.176,0,0,0,1.5,1.241v.5c-3.208.012-4.811.063-8.019.242-.111-1.888-.169-2.831-.28-4.719A12.012,12.012,0,0,1,72.288,70.5a10.14,10.14,0,0,1-4.819,1.809" transform="translate(52.784 38.64)" fill="#ed0000"/>
      </g>
    </g>
  </g>
</svg>
